<mxfile host="app.diagrams.net" modified="2022-08-29T07:32:43.796Z" agent="5.0 (Macintosh; Intel Mac OS X 10_15_7) AppleWebKit/537.36 (KHTML, like Gecko) Chrome/104.0.0.0 Safari/537.36" etag="tjNNAkmjSTzqn08bNEEv" version="20.2.7" type="github">
  <diagram id="C5RBs43oDa-KdzZeNtuy" name="Page-1">
    <mxGraphModel dx="946" dy="614" grid="1" gridSize="10" guides="1" tooltips="1" connect="1" arrows="1" fold="1" page="1" pageScale="1" pageWidth="827" pageHeight="1169" math="0" shadow="0">
      <root>
        <mxCell id="WIyWlLk6GJQsqaUBKTNV-0" />
        <mxCell id="WIyWlLk6GJQsqaUBKTNV-1" parent="WIyWlLk6GJQsqaUBKTNV-0" />
        <mxCell id="oULk6Vh2SIBAOdDKfZh6-1" value="" style="edgeStyle=orthogonalEdgeStyle;rounded=0;orthogonalLoop=1;jettySize=auto;html=1;" edge="1" parent="WIyWlLk6GJQsqaUBKTNV-1" source="WIyWlLk6GJQsqaUBKTNV-3" target="oULk6Vh2SIBAOdDKfZh6-0">
          <mxGeometry relative="1" as="geometry" />
        </mxCell>
        <mxCell id="oULk6Vh2SIBAOdDKfZh6-12" value="" style="edgeStyle=orthogonalEdgeStyle;rounded=0;orthogonalLoop=1;jettySize=auto;html=1;" edge="1" parent="WIyWlLk6GJQsqaUBKTNV-1" source="WIyWlLk6GJQsqaUBKTNV-3" target="oULk6Vh2SIBAOdDKfZh6-11">
          <mxGeometry relative="1" as="geometry" />
        </mxCell>
        <mxCell id="WIyWlLk6GJQsqaUBKTNV-3" value="Tegning + udklipning af mønster" style="rounded=1;whiteSpace=wrap;html=1;fontSize=12;glass=0;strokeWidth=1;shadow=0;fillColor=#ffe6cc;strokeColor=#d79b00;" parent="WIyWlLk6GJQsqaUBKTNV-1" vertex="1">
          <mxGeometry x="160" y="80" width="120" height="40" as="geometry" />
        </mxCell>
        <mxCell id="oULk6Vh2SIBAOdDKfZh6-3" value="" style="edgeStyle=orthogonalEdgeStyle;rounded=0;orthogonalLoop=1;jettySize=auto;html=1;" edge="1" parent="WIyWlLk6GJQsqaUBKTNV-1" source="oULk6Vh2SIBAOdDKfZh6-0" target="oULk6Vh2SIBAOdDKfZh6-2">
          <mxGeometry relative="1" as="geometry" />
        </mxCell>
        <mxCell id="oULk6Vh2SIBAOdDKfZh6-14" value="" style="edgeStyle=orthogonalEdgeStyle;rounded=0;orthogonalLoop=1;jettySize=auto;html=1;" edge="1" parent="WIyWlLk6GJQsqaUBKTNV-1" source="oULk6Vh2SIBAOdDKfZh6-0" target="oULk6Vh2SIBAOdDKfZh6-13">
          <mxGeometry relative="1" as="geometry" />
        </mxCell>
        <mxCell id="oULk6Vh2SIBAOdDKfZh6-0" value="Overføring af mønster" style="rounded=1;whiteSpace=wrap;html=1;fontSize=12;glass=0;strokeWidth=1;shadow=0;fillColor=#ffe6cc;strokeColor=#d79b00;" vertex="1" parent="WIyWlLk6GJQsqaUBKTNV-1">
          <mxGeometry x="160" y="150" width="120" height="40" as="geometry" />
        </mxCell>
        <mxCell id="oULk6Vh2SIBAOdDKfZh6-5" value="" style="edgeStyle=orthogonalEdgeStyle;rounded=0;orthogonalLoop=1;jettySize=auto;html=1;" edge="1" parent="WIyWlLk6GJQsqaUBKTNV-1" source="oULk6Vh2SIBAOdDKfZh6-2" target="oULk6Vh2SIBAOdDKfZh6-4">
          <mxGeometry relative="1" as="geometry" />
        </mxCell>
        <mxCell id="oULk6Vh2SIBAOdDKfZh6-16" value="" style="edgeStyle=orthogonalEdgeStyle;rounded=0;orthogonalLoop=1;jettySize=auto;html=1;" edge="1" parent="WIyWlLk6GJQsqaUBKTNV-1" source="oULk6Vh2SIBAOdDKfZh6-2" target="oULk6Vh2SIBAOdDKfZh6-15">
          <mxGeometry relative="1" as="geometry" />
        </mxCell>
        <mxCell id="oULk6Vh2SIBAOdDKfZh6-2" value="Udklipning af markeret stof" style="rounded=1;whiteSpace=wrap;html=1;fontSize=12;glass=0;strokeWidth=1;shadow=0;fillColor=#ffe6cc;strokeColor=#d79b00;" vertex="1" parent="WIyWlLk6GJQsqaUBKTNV-1">
          <mxGeometry x="160" y="220" width="120" height="40" as="geometry" />
        </mxCell>
        <mxCell id="oULk6Vh2SIBAOdDKfZh6-7" value="" style="edgeStyle=orthogonalEdgeStyle;rounded=0;orthogonalLoop=1;jettySize=auto;html=1;" edge="1" parent="WIyWlLk6GJQsqaUBKTNV-1" source="oULk6Vh2SIBAOdDKfZh6-4" target="oULk6Vh2SIBAOdDKfZh6-6">
          <mxGeometry relative="1" as="geometry" />
        </mxCell>
        <mxCell id="oULk6Vh2SIBAOdDKfZh6-18" value="" style="edgeStyle=orthogonalEdgeStyle;rounded=0;orthogonalLoop=1;jettySize=auto;html=1;" edge="1" parent="WIyWlLk6GJQsqaUBKTNV-1" source="oULk6Vh2SIBAOdDKfZh6-4" target="oULk6Vh2SIBAOdDKfZh6-17">
          <mxGeometry relative="1" as="geometry" />
        </mxCell>
        <mxCell id="oULk6Vh2SIBAOdDKfZh6-4" value="Kanter sys sammen 1 cm" style="rounded=1;whiteSpace=wrap;html=1;fontSize=12;glass=0;strokeWidth=1;shadow=0;fillColor=#ffe6cc;strokeColor=#d79b00;" vertex="1" parent="WIyWlLk6GJQsqaUBKTNV-1">
          <mxGeometry x="160" y="290" width="120" height="40" as="geometry" />
        </mxCell>
        <mxCell id="oULk6Vh2SIBAOdDKfZh6-9" value="" style="edgeStyle=orthogonalEdgeStyle;rounded=0;orthogonalLoop=1;jettySize=auto;html=1;" edge="1" parent="WIyWlLk6GJQsqaUBKTNV-1" source="oULk6Vh2SIBAOdDKfZh6-6" target="oULk6Vh2SIBAOdDKfZh6-8">
          <mxGeometry relative="1" as="geometry" />
        </mxCell>
        <mxCell id="oULk6Vh2SIBAOdDKfZh6-20" value="" style="edgeStyle=orthogonalEdgeStyle;rounded=0;orthogonalLoop=1;jettySize=auto;html=1;" edge="1" parent="WIyWlLk6GJQsqaUBKTNV-1" source="oULk6Vh2SIBAOdDKfZh6-6" target="oULk6Vh2SIBAOdDKfZh6-19">
          <mxGeometry relative="1" as="geometry" />
        </mxCell>
        <mxCell id="oULk6Vh2SIBAOdDKfZh6-6" value="" style="rounded=1;whiteSpace=wrap;html=1;fontSize=12;glass=0;strokeWidth=1;shadow=0;fillColor=#ffe6cc;strokeColor=#d79b00;" vertex="1" parent="WIyWlLk6GJQsqaUBKTNV-1">
          <mxGeometry x="160" y="360" width="120" height="40" as="geometry" />
        </mxCell>
        <mxCell id="oULk6Vh2SIBAOdDKfZh6-22" value="" style="edgeStyle=orthogonalEdgeStyle;rounded=0;orthogonalLoop=1;jettySize=auto;html=1;" edge="1" parent="WIyWlLk6GJQsqaUBKTNV-1" source="oULk6Vh2SIBAOdDKfZh6-8" target="oULk6Vh2SIBAOdDKfZh6-21">
          <mxGeometry relative="1" as="geometry" />
        </mxCell>
        <mxCell id="oULk6Vh2SIBAOdDKfZh6-8" value="" style="rounded=1;whiteSpace=wrap;html=1;fontSize=12;glass=0;strokeWidth=1;shadow=0;fillColor=#ffe6cc;strokeColor=#d79b00;" vertex="1" parent="WIyWlLk6GJQsqaUBKTNV-1">
          <mxGeometry x="160" y="430" width="120" height="40" as="geometry" />
        </mxCell>
        <mxCell id="oULk6Vh2SIBAOdDKfZh6-11" value="Færdigt mønster" style="rounded=1;whiteSpace=wrap;html=1;fontSize=12;glass=0;strokeWidth=1;shadow=0;fillColor=#fff2cc;strokeColor=#d6b656;" vertex="1" parent="WIyWlLk6GJQsqaUBKTNV-1">
          <mxGeometry x="320" y="80" width="120" height="40" as="geometry" />
        </mxCell>
        <mxCell id="oULk6Vh2SIBAOdDKfZh6-13" value="Markeret stof" style="rounded=1;whiteSpace=wrap;html=1;fontSize=12;glass=0;strokeWidth=1;shadow=0;fillColor=#fff2cc;strokeColor=#d6b656;" vertex="1" parent="WIyWlLk6GJQsqaUBKTNV-1">
          <mxGeometry x="320" y="150" width="120" height="40" as="geometry" />
        </mxCell>
        <mxCell id="oULk6Vh2SIBAOdDKfZh6-15" value="Diverse stofdele" style="rounded=1;whiteSpace=wrap;html=1;fontSize=12;glass=0;strokeWidth=1;shadow=0;fillColor=#fff2cc;strokeColor=#d6b656;" vertex="1" parent="WIyWlLk6GJQsqaUBKTNV-1">
          <mxGeometry x="320" y="220" width="120" height="40" as="geometry" />
        </mxCell>
        <mxCell id="oULk6Vh2SIBAOdDKfZh6-17" value="Sammensat taske" style="rounded=1;whiteSpace=wrap;html=1;fontSize=12;glass=0;strokeWidth=1;shadow=0;fillColor=#fff2cc;strokeColor=#d6b656;" vertex="1" parent="WIyWlLk6GJQsqaUBKTNV-1">
          <mxGeometry x="320" y="290" width="120" height="40" as="geometry" />
        </mxCell>
        <mxCell id="oULk6Vh2SIBAOdDKfZh6-19" value="" style="rounded=1;whiteSpace=wrap;html=1;fontSize=12;glass=0;strokeWidth=1;shadow=0;fillColor=#fff2cc;strokeColor=#d6b656;" vertex="1" parent="WIyWlLk6GJQsqaUBKTNV-1">
          <mxGeometry x="320" y="360" width="120" height="40" as="geometry" />
        </mxCell>
        <mxCell id="oULk6Vh2SIBAOdDKfZh6-21" value="" style="rounded=1;whiteSpace=wrap;html=1;fontSize=12;glass=0;strokeWidth=1;shadow=0;fillColor=#fff2cc;strokeColor=#d6b656;" vertex="1" parent="WIyWlLk6GJQsqaUBKTNV-1">
          <mxGeometry x="320" y="430" width="120" height="40" as="geometry" />
        </mxCell>
        <mxCell id="oULk6Vh2SIBAOdDKfZh6-32" value="" style="edgeStyle=orthogonalEdgeStyle;rounded=0;orthogonalLoop=1;jettySize=auto;html=1;" edge="1" parent="WIyWlLk6GJQsqaUBKTNV-1" source="oULk6Vh2SIBAOdDKfZh6-23" target="WIyWlLk6GJQsqaUBKTNV-3">
          <mxGeometry relative="1" as="geometry" />
        </mxCell>
        <mxCell id="oULk6Vh2SIBAOdDKfZh6-23" value="Papir" style="text;html=1;align=center;verticalAlign=middle;resizable=0;points=[];autosize=1;strokeColor=none;fillColor=none;" vertex="1" parent="WIyWlLk6GJQsqaUBKTNV-1">
          <mxGeometry x="40" y="85" width="50" height="30" as="geometry" />
        </mxCell>
        <mxCell id="oULk6Vh2SIBAOdDKfZh6-31" value="" style="edgeStyle=orthogonalEdgeStyle;rounded=0;orthogonalLoop=1;jettySize=auto;html=1;" edge="1" parent="WIyWlLk6GJQsqaUBKTNV-1" target="oULk6Vh2SIBAOdDKfZh6-0">
          <mxGeometry relative="1" as="geometry">
            <mxPoint x="130" y="170" as="sourcePoint" />
          </mxGeometry>
        </mxCell>
        <mxCell id="oULk6Vh2SIBAOdDKfZh6-30" value="" style="edgeStyle=orthogonalEdgeStyle;rounded=0;orthogonalLoop=1;jettySize=auto;html=1;" edge="1" parent="WIyWlLk6GJQsqaUBKTNV-1" source="oULk6Vh2SIBAOdDKfZh6-25" target="oULk6Vh2SIBAOdDKfZh6-2">
          <mxGeometry relative="1" as="geometry" />
        </mxCell>
        <mxCell id="oULk6Vh2SIBAOdDKfZh6-25" value="Markeret stof" style="text;html=1;align=center;verticalAlign=middle;resizable=0;points=[];autosize=1;strokeColor=none;fillColor=none;" vertex="1" parent="WIyWlLk6GJQsqaUBKTNV-1">
          <mxGeometry x="40" y="225" width="90" height="30" as="geometry" />
        </mxCell>
        <mxCell id="oULk6Vh2SIBAOdDKfZh6-27" value="" style="edgeStyle=orthogonalEdgeStyle;rounded=0;orthogonalLoop=1;jettySize=auto;html=1;" edge="1" parent="WIyWlLk6GJQsqaUBKTNV-1" source="oULk6Vh2SIBAOdDKfZh6-26" target="oULk6Vh2SIBAOdDKfZh6-4">
          <mxGeometry relative="1" as="geometry" />
        </mxCell>
        <mxCell id="oULk6Vh2SIBAOdDKfZh6-26" value="Diverse stofdele" style="text;html=1;align=center;verticalAlign=middle;resizable=0;points=[];autosize=1;strokeColor=none;fillColor=none;" vertex="1" parent="WIyWlLk6GJQsqaUBKTNV-1">
          <mxGeometry x="10" y="295" width="110" height="30" as="geometry" />
        </mxCell>
        <mxCell id="oULk6Vh2SIBAOdDKfZh6-33" value="" style="edgeStyle=orthogonalEdgeStyle;rounded=0;orthogonalLoop=1;jettySize=auto;html=1;" edge="1" parent="WIyWlLk6GJQsqaUBKTNV-1" source="oULk6Vh2SIBAOdDKfZh6-28" target="oULk6Vh2SIBAOdDKfZh6-6">
          <mxGeometry relative="1" as="geometry" />
        </mxCell>
        <mxCell id="oULk6Vh2SIBAOdDKfZh6-28" value="Text" style="text;html=1;align=center;verticalAlign=middle;resizable=0;points=[];autosize=1;strokeColor=none;fillColor=none;" vertex="1" parent="WIyWlLk6GJQsqaUBKTNV-1">
          <mxGeometry x="90" y="370" width="40" height="20" as="geometry" />
        </mxCell>
        <mxCell id="oULk6Vh2SIBAOdDKfZh6-34" value="" style="edgeStyle=orthogonalEdgeStyle;rounded=0;orthogonalLoop=1;jettySize=auto;html=1;" edge="1" parent="WIyWlLk6GJQsqaUBKTNV-1" source="oULk6Vh2SIBAOdDKfZh6-29" target="oULk6Vh2SIBAOdDKfZh6-8">
          <mxGeometry relative="1" as="geometry" />
        </mxCell>
        <mxCell id="oULk6Vh2SIBAOdDKfZh6-29" value="Text" style="text;html=1;align=center;verticalAlign=middle;resizable=0;points=[];autosize=1;strokeColor=none;fillColor=none;" vertex="1" parent="WIyWlLk6GJQsqaUBKTNV-1">
          <mxGeometry x="90" y="440" width="40" height="20" as="geometry" />
        </mxCell>
        <mxCell id="oULk6Vh2SIBAOdDKfZh6-36" value="Bomuldsstof" style="text;html=1;align=center;verticalAlign=middle;resizable=0;points=[];autosize=1;strokeColor=none;fillColor=none;" vertex="1" parent="WIyWlLk6GJQsqaUBKTNV-1">
          <mxGeometry x="40" y="155" width="90" height="30" as="geometry" />
        </mxCell>
      </root>
    </mxGraphModel>
  </diagram>
</mxfile>
